<svg width="128" height="128" viewBox="0 0 128 128" xmlns="http://www.w3.org/2000/svg">
  <!-- Background -->
  <rect width="128" height="128" rx="22" fill="#3286A7"/>

  <!-- Left curly brace { -->
  <path d="M 52,22 C 46,22 37,28 37,38 L 37,56 C 37,61 30,63 28,64 C 30,65 37,67 37,72 L 37,90 C 37,100 46,106 52,106"
    fill="none" stroke="white" stroke-width="11" stroke-linecap="round" stroke-linejoin="round"/>

  <!-- Right curly brace } -->
  <path d="M 76,22 C 82,22 91,28 91,38 L 91,56 C 91,61 98,63 100,64 C 98,65 91,67 91,72 L 91,90 C 91,100 82,106 76,106"
    fill="none" stroke="white" stroke-width="11" stroke-linecap="round" stroke-linejoin="round"/>
</svg>
